<?xml version="1.0" encoding="UTF-8"?>
<!-- Generator: Adobe Illustrator 16.0.3, SVG Export Plug-In . SVG Version: 6.00 Build 0)  -->
<svg version="1.2" baseProfile="tiny" id="Ebene_1" xmlns="http://www.w3.org/2000/svg" xmlns:xlink="http://www.w3.org/1999/xlink" x="0px" y="0px" width="595px" height="623px" viewBox="0 0 595 623" xml:space="preserve"><title> | https://www.uni-potsdam.de/</title>
<path fill="#00305D" d="M47.209,220.56c5.684,1.836,11.792-1.27,13.633-6.953s-1.265-11.787-6.948-13.633  c-5.684-1.855-11.782,1.27-13.623,6.953C38.42,212.611,41.525,218.705,47.209,220.56z"/>
<path fill="#00305D" d="M41.75,354.251c5.903-0.938,9.937-6.475,8.999-12.373c-0.933-5.908-6.475-9.932-12.383-8.994  c-5.898,0.938-9.922,6.465-8.975,12.383C30.319,351.165,35.852,355.179,41.75,354.251z"/>
<path fill="#00305D" d="M97.595,475.853c4.834-3.516,5.908-10.283,2.412-15.117c-3.525-4.834-10.293-5.898-15.137-2.383  c-4.834,3.496-5.889,10.264-2.373,15.107C86.003,478.294,92.761,479.368,97.595,475.853z"/>
<path fill="#00305D" d="M202.546,558.851c2.725-5.322,0.605-11.846-4.707-14.561c-5.342-2.715-11.846-0.586-14.57,4.736  c-2.705,5.322-0.586,11.826,4.756,14.551C193.347,566.292,199.831,564.173,202.546,558.851z"/>
<path fill="#00305D" d="M333.757,585.149c0-5.986-4.824-10.82-10.801-10.82c-5.996,0-10.84,4.834-10.84,10.82  c0,5.977,4.844,10.811,10.84,10.801C328.923,595.96,333.757,591.126,333.757,585.149z"/>
<path fill="#00305D" d="M161.218,65.228l-4.756,4.043l20.557,24.131c5.771,6.768,7.09,13.193,4.258,20.518  c-1.465,3.662-3.867,7.012-6.973,9.658c-9.18,7.822-21.133,7.51-28.203-0.791l-22.07-25.898l-4.746,4.043l-1.992-2.344  l15.068-12.832l2.002,2.344l-4.756,4.043l20.4,23.945c6.523,7.656,15.283,8.828,22.314,2.842c7.217-6.143,7.725-15.43,1.25-23.037  l-20.342-23.867l-4.746,4.043l-1.992-2.344l12.725-10.84L161.218,65.228z"/>
<path fill="#00305D" d="M235.007,84.095l-16.621,8.799l-1.436-2.725l5.518-2.91l-11.406-21.543c-2.07-3.906-5.332-5.283-8.574-3.574  c-3.154,1.68-4.258,4.043-6.758,14.785l10.117,19.121l5.586-2.959l1.445,2.725l-16.699,8.828l-1.445-2.715l5.586-2.959  l-14.004-26.475l-6.396,3.389l-1.045-1.982l9.063-8.477l1.328-0.703l4.355,8.242c2.129-9.316,4.248-12.979,8.945-15.469  c5.449-2.881,10.703-1.143,13.691,4.531L228.054,84.3l5.508-2.92L235.007,84.095z"/>
<path fill="#00305D" d="M257.37,77.171l-17.861,6.123l-1.006-2.91l5.986-2.051l-9.717-28.34l-6.846,2.363l-0.732-2.129l10.283-6.963  l1.416-0.479l11.504,33.516l5.977-2.041L257.37,77.171z M229.548,26.283c2.354-0.801,4.795,0.391,5.576,2.666  c0.801,2.363-0.391,4.795-2.744,5.605c-2.285,0.781-4.717-0.41-5.518-2.773C226.071,29.505,227.263,27.064,229.548,26.283z"/>
<path fill="#00305D" d="M287.907,34.994l-3.428,0.703l-6.191,37.676l-1.631,0.332L255.31,41.693l-3.438,0.615l-0.615-3.018  l15.82-3.203l0.605,3.008l-5.703,1.162l14.58,22.09l4.248-25.908l-5.449,1.113l-0.615-3.027l12.549-2.549L287.907,34.994z"/>
<path fill="#00305D" d="M302.683,43.958c0.488-6.523,4.561-10.771,10.625-11.016c4.824-0.205,8.379,3.232,8.594,8.223l0.078,1.992  L302.683,43.958z M326.96,61.019c-4.531,3.193-6.748,4.111-10.078,4.248c-7.891,0.322-13.672-6.68-14.102-17.07l-0.039-0.918  l26.191-1.074l-0.098-2.246c-0.371-8.984-6.777-14.883-15.752-14.512c-10.303,0.43-17.529,9.219-17.041,20.859  c0.469,11.465,8.281,19.316,18.848,18.867c4.814-0.195,7.686-1.309,13.77-5.137L326.96,61.019z"/>
<path fill="#00305D" d="M354.294,69.964l-20.439-2.1l0.313-3.066l6.289,0.645l3.066-29.785l-7.207-0.742l0.234-2.246l12.246-1.992  l1.484,0.156l-0.947,9.268c6.748-7.002,9.072-8.604,12.061-8.301c0.996,0.107,1.797,0.439,2.246,0.986l2.324,2.5l-5.391,5.293  c-1.494-1.738-2.578-2.598-3.398-2.695c-1.504-0.146-3.125,1.113-8.242,6.191l-2.266,22.012l7.939,0.82L354.294,69.964z"/>
<path fill="#00305D" d="M367.741,72.884l-3.232-0.781l2.783-11.484l3.721,0.898l-0.537,2.188c-0.84,3.477,2.949,7.646,7.969,8.867  c4.434,1.074,8.32-0.469,9.102-3.701c0.791-3.232-1.035-5.557-8.73-10.947c-7.031-4.863-9.063-8.525-7.822-13.613  c1.533-6.309,7.666-9.355,15.107-7.559c3.555,0.859,6.094,2.422,7.9,4.824l1.191-2.793l3.477,0.84l-4.775,11.182l-3.467-0.85  c0.537-0.801,0.947-1.816,1.133-2.539c0.771-3.164-2.246-6.631-6.611-7.686c-4.199-1.025-7.5,0.576-8.35,4.053  c-0.84,3.477-0.381,4.023,8.447,10.352c7.168,5.078,9.023,8.35,7.764,13.535c-1.572,6.465-7.686,9.766-14.873,8.027  c-4.531-1.094-7.676-2.969-9.492-5.723L367.741,72.884z"/>
<path fill="#00305D" d="M413.62,86.273l-17.676-6.67l1.094-2.881l5.918,2.236l10.576-28.027l-6.768-2.559l0.781-2.09l12.363,1.191  l1.406,0.527l-12.529,33.164l5.908,2.227L413.62,86.273z M424.626,29.33c2.334,0.879,3.447,3.35,2.598,5.605  c-0.889,2.344-3.35,3.457-5.684,2.578c-2.256-0.859-3.369-3.32-2.49-5.664C419.909,29.593,422.37,28.48,424.626,29.33z"/>
<path fill="#00305D" d="M438.532,94.623c-5.498,1.152-7.324,1.074-10.088-0.303c-4.307-2.158-5.566-6.143-3.301-10.674  l11.484-23.008l-6.465-3.223l0.996-2.012l7.295,1.602l5.127-10.273l5.371,2.676l-5.254,10.488l9.229,4.619l-1.709,3.418  l-9.229-4.609l-11.162,22.324c-1.406,2.822-0.957,4.346,1.494,5.586c1.563,0.771,2.686,0.967,5.947,0.732L438.532,94.623z"/>
<path fill="#00305D" d="M489.46,73.851c1.309-1.924,0.879-4.541-1.035-5.85c-1.914-1.328-4.512-0.781-5.83,1.133  c-1.279,1.855-0.85,4.473,1.074,5.781C485.593,76.244,488.19,75.697,489.46,73.851z M469.802,114.955l-5.283-3.633l14.512-21.113  c3.105-4.531,1.201-10.273-4.834-14.424c-6.24-4.287-12.861-4.502-15.596-0.518c-0.518,0.762-0.684,1.152-0.771,2.305l7.334,2.402  l2.266-3.291c2.637,0.4,3.672,0.811,5.039,1.748c2.754,1.895,3.438,5.293,1.563,8.037l-5.332,7.744l-13.555-5.371  c-3.818-1.514-8.066-0.186-10.459,3.32c-3.154,4.59-1.924,10.283,2.813,13.535c3.643,2.49,7.236,2.842,12.568,1.26  c-0.195,0.264-0.342,0.479-0.488,0.684c-1.738,2.529-1.543,4.893,0.586,6.357c0.547,0.371,1.66,0.83,2.734,1.172l5.586,1.699  L469.802,114.955z M477.312,65.511c1.318-1.924,0.898-4.531-1.025-5.85s-4.502-0.781-5.83,1.143c-1.27,1.846-0.85,4.463,1.074,5.781  C473.444,67.904,476.042,67.367,477.312,65.511z M461.823,104.232c-4.844,0.605-7.305,0.332-9.492-1.172  c-2.881-1.973-3.457-5.098-1.484-7.979l2.363-3.428l13.604,5.313L461.823,104.232z"/>
<path fill="#00305D" d="M488.073,132.24c-5.605-0.332-7.354-0.879-9.648-2.93c-3.594-3.223-3.77-7.393-0.391-11.172l17.129-19.18  l-5.41-4.824l1.504-1.68l6.621,3.467l7.656-8.564l4.453,3.984l-7.813,8.75l7.695,6.875l-2.549,2.852l-7.686-6.865l-16.641,18.613  c-2.109,2.354-2.07,3.945-0.02,5.771c1.289,1.172,2.324,1.641,5.547,2.285L488.073,132.24z"/>
<path fill="#00305D" d="M96.765,344.642l-3.975-20.166l3.018-0.596l1.211,6.123l47.832-9.424l-1.201-6.123l3.018-0.596l4.609,23.34  c1.855,9.473-3.223,17.266-12.363,19.063c-9.141,1.807-17.773-4.551-19.766-14.668c-0.313-1.563-0.4-2.471-0.41-4.678l2.852-0.557  c-0.02,1.104,0.049,1.504,0.195,2.246c1.377,7.021,8.398,11.66,15.664,10.225c6.533-1.279,10.898-6.641,9.844-12.021l-1.758-8.906  l-47.09,9.287l1.357,6.934L96.765,344.642z"/>
<path fill="#00305D" d="M144.206,378.157c2.549,5.703-1.982,13.096-10.41,16.855c-8.438,3.77-16.973,2.197-19.512-3.506  c-2.549-5.693,2.09-13.047,10.449-16.777C133.171,370.97,141.667,372.454,144.206,378.157z M111.081,392.942  c4.102,9.189,15.566,12.998,25.586,8.535c10.039-4.473,14.844-15.547,10.742-24.746c-4.102-9.189-15.566-13.008-25.586-8.535  C111.794,372.669,106.979,383.743,111.081,392.942z"/>
<path fill="#00305D" d="M142.761,437.688c-5.381-1.65-6.943-2.588-8.691-5.127c-2.734-3.975-1.934-8.066,2.246-10.947l21.172-14.59  l-4.102-5.967l1.836-1.279l5.615,4.922l9.463-6.514l3.398,4.932l-9.658,6.66l5.85,8.496l-3.145,2.168l-5.859-8.496l-20.547,14.18  c-2.598,1.787-2.949,3.34-1.387,5.605c0.986,1.426,1.875,2.129,4.854,3.516L142.761,437.688z"/>
<path fill="#00305D" d="M149.694,452.483l-2.324-2.393l8.496-8.213l2.656,2.744l-1.602,1.563c-2.578,2.49-1.611,8.037,1.973,11.738  c3.184,3.301,7.285,4.072,9.688,1.758c2.383-2.314,2.08-5.264-1.543-13.906c-3.34-7.891-3.086-12.061,0.674-15.703  c4.678-4.512,11.484-3.809,16.807,1.699c2.539,2.627,3.848,5.293,4.092,8.301l2.51-1.729l2.48,2.578l-10,6.895l-2.49-2.578  c0.889-0.4,1.787-1.025,2.324-1.553c2.334-2.246,1.65-6.797-1.475-10.02c-3.008-3.105-6.66-3.535-9.219-1.045  c-2.578,2.49-2.471,3.193,1.602,13.271c3.33,8.115,3.145,11.875-0.684,15.586c-4.785,4.629-11.719,4.16-16.865-1.172  c-3.232-3.34-4.893-6.611-4.951-9.902L149.694,452.483z"/>
<path fill="#00305D" d="M202.097,486.946c-3.672,0.225-4.99-0.059-7.129-1.514c-5.645-3.818-5.898-10.732-0.664-18.447  c5.371-7.91,13.438-10.186,20.117-5.664c4.063,2.754,4.453,5.137,1.563,9.414l-10.82,15.977  C203.796,486.79,202.741,486.878,202.097,486.946z M213.972,497.903l-5.996-4.063l31.777-46.914l-1.309-0.879l-11.738-4.043  l-1.27,1.865l5.996,4.053l-10.781,15.918c-1.68-3.145-2.695-4.336-5.039-5.918c-9.014-6.113-21.494-3.418-27.93,6.094  c-5.977,8.809-5.039,19.59,2.119,24.453c3.506,2.383,6.768,2.773,13.115,1.543l-3.262,4.824l1.309,0.889l11.699,4.102  L213.972,497.903z"/>
<path fill="#00305D" d="M244.89,507.093c-4.59,1.66-7.031,1.943-9.512,0.947c-3.242-1.289-4.492-4.209-3.203-7.461l1.543-3.857  l14.453,2.178L244.89,507.093z M255.046,515.794l-5.957-2.373l9.492-23.799c2.031-5.107-1.094-10.293-7.891-13.008  c-7.031-2.793-13.535-1.543-15.332,2.939c-0.332,0.85-0.41,1.27-0.234,2.412l7.676,0.732l1.484-3.711  c2.666-0.186,3.77-0.02,5.313,0.596c3.086,1.23,4.512,4.404,3.281,7.49l-3.486,8.74l-14.414-2.266  c-4.053-0.625-7.891,1.602-9.463,5.547c-2.07,5.176,0.4,10.459,5.723,12.588c4.102,1.631,7.695,1.182,12.539-1.553  c-0.127,0.313-0.225,0.547-0.313,0.781c-1.133,2.852-0.43,5.117,1.973,6.074c0.615,0.234,1.787,0.439,2.92,0.527l5.82,0.449  L255.046,515.794z"/>
<path fill="#00305D" d="M334.968,531.614l-18.711-1.816l0.303-3.066l6.299,0.605l2.363-24.258c0.439-4.473-1.553-7.266-5.195-7.617  c-2.734-0.264-5,0.762-8.936,4.229l-4.854,4.287l-2.1,21.533l6.211,0.605l-0.303,3.076l-18.711-1.836l0.293-3.066l6.211,0.605  l2.383-24.258c0.43-4.395-1.543-7.344-5.195-7.695c-3.555-0.352-5.781,1.016-13.799,8.594l-2.1,21.533l6.299,0.615l-0.303,3.066  l-18.789-1.836l0.293-3.066l6.289,0.615l2.91-29.814l-7.197-0.703l0.225-2.236l12.227-2.061l1.494,0.146l-0.908,9.268  c6.914-6.592,10.703-8.477,15.996-7.969c5.879,0.586,8.809,3.965,9.014,10.42c6.914-6.602,10.693-8.486,15.908-7.979  c6.133,0.605,9.551,4.941,8.936,11.24l-2.461,25.166l6.211,0.615L334.968,531.614z"/>
<path fill="#00305D" d="M333.024,247.406c-0.42-1.182-0.732-2.832-0.732-4.697c0-3.574,0.977-6.465,2.188-6.465  c1.201,0,2.178,2.891,2.178,6.465c0,1.865-0.283,3.555-0.713,4.727h16.914c-0.41-1.172-0.693-2.861-0.693-4.727  c0-3.574,0.986-6.465,2.178-6.465c1.211,0,2.188,2.891,2.188,6.465c0,1.865-0.273,3.555-0.693,4.727h16.768  c-0.43-1.172-0.684-2.861-0.684-4.727c0-3.574,0.977-6.465,2.178-6.465s2.178,2.891,2.178,6.465c0,1.865-0.273,3.555-0.703,4.727  h16.738c-0.42-1.172-0.684-2.861-0.684-4.727c0-3.574,0.967-6.465,2.168-6.465c1.211,0,2.188,2.891,2.188,6.465  c0,1.865-0.273,3.555-0.703,4.727h15.938V223.48h5.4c0.615-1.65,1.592-4.619,1.484-7.988c-0.537-17.314,8.799-31.611,29.277-32.354  c-0.361-1.143-0.596-2.715-0.596-4.443c0-3.574,1.006-6.465,2.207-6.465c1.211,0,2.217,2.891,2.217,6.465  c0,1.729-0.244,3.301-0.615,4.443c20.488,0.742,29.824,15.039,29.297,32.354c-0.117,3.369,0.859,6.338,1.504,7.988h5.391v23.955  h15.928c-0.43-1.172-0.693-2.861-0.693-4.727c0-3.574,0.957-6.465,2.168-6.465c1.201,0,2.188,2.891,2.188,6.465  c0,1.865-0.273,3.555-0.703,4.727h16.738c-0.42-1.172-0.684-2.861-0.684-4.727c0-3.574,0.957-6.465,2.188-6.465  c1.182,0,2.168,2.891,2.168,6.465c0,1.865-0.273,3.555-0.703,4.727h16.777c-0.43-1.172-0.703-2.861-0.703-4.727  c0-3.574,0.977-6.465,2.188-6.465c1.191,0,2.188,2.891,2.188,6.465c0,1.865-0.283,3.555-0.713,4.727h16.924  c-0.439-1.172-0.703-2.861-0.703-4.727c0-3.574,0.977-6.465,2.188-6.465c1.191,0,2.168,2.891,2.168,6.465  c0,1.865-0.303,3.516-0.742,4.697v8.984h-78.164v6.172h-75.566v-6.172h75.547l-37.773-20.254l-37.773,20.254h-78.193V247.406z   M486.784,262.669h78.174v135.732h-22.363c-4.521,11.455-25.918,21.006-55.83,25.439v-22.773  c27.031-3.701,55.293-13.379,55.449-27.109c0.137-12.09-22.773-22.754-55.43-27.383V262.669z M542.585,346.595h10.898v-68.222  h-10.898V346.595z M520.231,346.595h10.898v-68.222h-10.898V346.595z M497.956,346.595h10.908v-68.222h-10.908V346.595z   M518.171,374.036c0-8.33-14.59-14.688-31.406-18.125v36.25C505.671,388.313,518.171,381.614,518.171,374.036z M478.64,346.556  v-68.125h-10.898v68.125H478.64z M411.228,401.067v22.773c-29.912-4.434-51.318-13.984-55.83-25.439h-22.373V262.669h78.193v83.906  c-32.686,4.629-55.586,15.293-55.449,27.383C355.944,387.688,384.196,397.366,411.228,401.067z M389.128,346.595h10.898v-68.222  h-10.898V346.595z M366.862,346.595h10.889v-68.222h-10.889V346.595z M355.397,278.373h-10.898v68.222h10.898V278.373z   M379.831,374.036c0,7.578,12.48,14.277,31.396,18.125v-36.25C394.401,359.349,379.831,365.706,379.831,374.036z M417.829,392.181  h62.363v-36.465h-62.363V392.181z M459.421,346.556v-68.125h-20.84v68.125H459.421z M430.251,346.556v-68.125h-10.889v68.125  H430.251z"/>
</svg>