<?xml version="1.0" encoding="iso-8859-1"?>
<!-- Generator: Adobe Illustrator 16.0.0, SVG Export Plug-In . SVG Version: 6.00 Build 0)  -->
<!DOCTYPE svg PUBLIC "-//W3C//DTD SVG 1.1//EN" "http://www.w3.org/Graphics/SVG/1.1/DTD/svg11.dtd">
<svg version="1.1" id="Ebene_1" xmlns="http://www.w3.org/2000/svg" xmlns:xlink="http://www.w3.org/1999/xlink" x="0px" y="0px"
	 width="50px" height="50px" viewBox="0 0 50 50" style="enable-background:new 0 0 50 50;" xml:space="preserve">
<g>
	<g>
		<path style="fill-rule:evenodd;clip-rule:evenodd;fill:#014260;" d="M11.542,46.748V4.681c-1.323,1.072-2.511,2.378-3.537,3.952
			c-0.618,0.949-1.027,2.061-1.385,3.145c-0.704,2.135-1.334,4.294-1.933,6.46c-0.244,0.887-0.082,1.788,0.349,2.615
			c0.584,1.123,0.44,2.097-0.332,3.129c-1.35,1.806-2.593,3.69-3.851,5.56c-0.544,0.809-0.468,1.687,0.274,2.291
			c0.537,0.438,1.194,0.769,1.849,1.004c0.908,0.323,1.067,0.508,0.803,1.445c-0.105,0.372-0.274,0.739-0.297,1.114
			c-0.053,0.845,0.529,1.325,1.22,1.774c-0.708,0.814-0.595,1.562,0.081,2.32c0.463,0.521,0.567,1.134,0.375,1.862
			c-0.191,0.72-0.308,1.511-0.218,2.244c0.233,1.938,1.666,3.175,3.786,3.367C10.17,47.094,11.542,46.748,11.542,46.748z"/>
		<g>
			<path style="fill:#014260;" d="M11.673,46.745c0-5.238,0-10.478,0-15.717c0-7.703,0-15.408,0-23.113c0-1.079,0-2.158,0-3.238
				c0-0.113-0.157-0.128-0.225-0.072c-1.39,1.14-2.568,2.477-3.557,3.974c-1.045,1.58-1.529,3.524-2.079,5.314
				c-0.295,0.954-0.575,1.914-0.849,2.875c-0.264,0.929-0.596,1.826-0.486,2.803c0.1,0.89,0.701,1.601,0.783,2.496
				c0.101,1.114-0.812,2.041-1.411,2.873c-0.587,0.813-1.151,1.641-1.714,2.469c-0.281,0.415-0.561,0.832-0.84,1.248
				c-0.257,0.383-0.597,0.774-0.766,1.207c-0.59,1.513,0.77,2.384,1.99,2.917c0.345,0.149,0.719,0.236,1.038,0.447
				c0.344,0.226,0.18,0.712,0.096,1.027c-0.177,0.67-0.522,1.375-0.094,2.031c0.167,0.255,0.364,0.452,0.598,0.646
				c0.09,0.074,0.423,0.195,0.282,0.373c-0.083,0.104-0.181,0.266-0.226,0.394c-0.257,0.709-0.007,1.291,0.457,1.85
				c0.583,0.7,0.44,1.397,0.256,2.218c-0.134,0.601-0.174,1.219-0.118,1.832c0.084,0.908,0.518,1.737,1.167,2.365
				c1.421,1.369,3.821,1.328,5.605,0.893c0.166-0.041,0.077-0.247-0.075-0.211c-2.183,0.531-5.057,0.348-6.135-1.945
				c-0.261-0.556-0.333-1.172-0.329-1.778c0.005-0.69,0.286-1.322,0.326-1.995c0.03-0.504-0.071-0.913-0.346-1.336
				c-0.228-0.35-0.491-0.592-0.629-1.008c-0.169-0.502,0.124-0.983,0.422-1.36c0.032-0.037,0.018-0.104-0.023-0.131
				c-0.634-0.42-1.185-0.874-1.179-1.698c0.003-0.661,0.511-1.256,0.39-1.935c-0.057-0.317-0.375-0.476-0.64-0.597
				c-0.757-0.343-1.475-0.587-2.146-1.108c-0.839-0.651-0.627-1.602-0.113-2.367c0.513-0.763,1.023-1.526,1.541-2.286
				c0.518-0.759,1.042-1.513,1.58-2.258c0.457-0.637,0.959-1.227,1.204-1.981c0.172-0.537,0.09-1.105-0.083-1.627
				c-0.12-0.36-0.325-0.688-0.455-1.046c-0.201-0.547-0.223-1.13-0.13-1.7c0.145-0.882,0.484-1.769,0.732-2.627
				c0.256-0.879,0.521-1.756,0.795-2.63c0.511-1.636,1.008-3.298,1.96-4.74c0.932-1.411,2.083-2.663,3.389-3.734
				c-0.075-0.024-0.151-0.048-0.225-0.072c0,5.239,0,10.479,0,15.718c0,7.704,0,15.408,0,23.114c0,1.078,0,2.157,0,3.237
				C11.412,46.896,11.673,46.89,11.673,46.745z"/>
		</g>
	</g>
	<g>
		<path style="fill:#014260;" d="M50,46.407H38.995L27.072,30.541h-5.664v15.866h-8.9V4.533h15.563c5.646,0,9.716,1.035,12.207,3.1
			c2.489,2.065,3.735,4.867,3.735,8.404c0,5.54-2.707,9.642-8.12,12.309L50,46.407z M21.354,11.119v13.032h3.992
			c3.832,0,6.367-0.658,7.607-1.974s1.862-3.037,1.862-5.167c0-1.891-0.594-3.345-1.781-4.363c-1.188-1.019-3.525-1.528-7.013-1.528
			H21.354z"/>
	</g>
	<g>
		<path style="fill:#FFFFFF;" d="M17.795,38.754c1.007,0,1.762,0.283,2.268,0.847c0.504,0.564,0.757,1.371,0.757,2.417
			c0,1.051-0.255,1.857-0.765,2.418c-0.51,0.562-1.263,0.842-2.26,0.842h-4.793v-1.684h4.747c0.638,0,1.099-0.129,1.383-0.39
			c0.285-0.262,0.427-0.657,0.427-1.187c0-0.542-0.141-0.94-0.423-1.197c-0.284-0.256-0.743-0.383-1.376-0.383h-4.758v-1.684H17.795
			z"/>
		<path style="fill:#FFFFFF;" d="M18.055,35.354h2.607v1.678h-7.661v-2.897c0-0.994,0.202-1.748,0.607-2.264
			c0.405-0.515,0.997-0.771,1.777-0.771c0.813,0,1.462,0.284,1.944,0.854c0.483,0.57,0.725,1.313,0.725,2.227V35.354z
			 M14.206,35.362h2.633v-0.446c0-0.84-0.115-1.397-0.348-1.67c-0.232-0.271-0.589-0.408-1.07-0.408
			c-0.397,0-0.699,0.131-0.905,0.394c-0.207,0.263-0.311,0.781-0.311,1.557V35.362z"/>
	</g>
</g>
</svg>
