<?xml version="1.0" encoding="utf-8"?>
<!-- Generator: Adobe Illustrator 16.0.3, SVG Export Plug-In . SVG Version: 6.00 Build 0)  -->
<!DOCTYPE svg PUBLIC "-//W3C//DTD SVG 1.1//EN" "http://www.w3.org/Graphics/SVG/1.1/DTD/svg11.dtd">
<svg version="1.1" id="Ebene_1" xmlns="http://www.w3.org/2000/svg" xmlns:xlink="http://www.w3.org/1999/xlink" x="0px" y="0px"
	 width="21.9px" height="22.016px" viewBox="0 0 21.9 22.016" enable-background="new 0 0 21.9 22.016" xml:space="preserve">
<path fill="#014260" d="M5.74,8.079C5.464,7.71,5.192,7.331,4.905,6.965C4.813,6.848,4.822,6.772,4.9,6.66
	c0.5-0.715,1.105-1.322,1.819-1.824c0.127-0.088,0.213-0.1,0.344,0.005C7.42,5.127,7.794,5.393,8.154,5.662
	C8.39,5.569,8.617,5.49,8.832,5.385c0.067-0.032,0.13-0.127,0.143-0.203c0.071-0.421,0.122-0.846,0.193-1.267
	C9.179,3.854,9.256,3.77,9.314,3.758c0.902-0.184,1.806-0.184,2.708,0.003c0.056,0.013,0.125,0.104,0.135,0.168
	c0.07,0.413,0.132,0.828,0.181,1.244c0.016,0.129,0.06,0.203,0.185,0.23c0.022,0.004,0.046,0.01,0.064,0.023
	c0.43,0.305,0.787,0.175,1.132-0.165c0.165-0.162,0.378-0.273,0.552-0.426c0.121-0.105,0.205-0.085,0.323-0.003
	c0.722,0.502,1.33,1.118,1.837,1.837c0.082,0.118,0.066,0.195-0.019,0.304c-0.256,0.324-0.503,0.654-0.738,0.992
	c-0.046,0.064-0.044,0.178-0.029,0.263c0.014,0.089,0.091,0.168,0.104,0.258c0.054,0.368,0.303,0.444,0.623,0.468
	c0.323,0.024,0.646,0.083,0.967,0.141c0.056,0.009,0.133,0.077,0.145,0.132c0.192,0.901,0.188,1.806,0.004,2.707
	c-0.011,0.06-0.098,0.136-0.159,0.146c-0.413,0.07-0.828,0.133-1.244,0.183c-0.137,0.017-0.215,0.063-0.243,0.198
	c-0.015,0.068-0.039,0.139-0.077,0.194c-0.226,0.321-0.135,0.581,0.118,0.85c0.201,0.214,0.352,0.474,0.537,0.703
	c0.084,0.104,0.091,0.178,0.017,0.286c-0.513,0.736-1.135,1.358-1.871,1.869c-0.109,0.077-0.184,0.062-0.285-0.019
	c-0.323-0.256-0.659-0.494-0.984-0.748c-0.1-0.076-0.176-0.058-0.291-0.03c-0.514,0.119-0.754,0.418-0.744,0.951
	c0.006,0.244-0.053,0.494-0.105,0.736c-0.015,0.064-0.1,0.152-0.166,0.165c-0.888,0.175-1.776,0.177-2.663-0.003
	c-0.063-0.014-0.146-0.105-0.159-0.171c-0.071-0.413-0.119-0.831-0.192-1.243c-0.016-0.084-0.099-0.174-0.176-0.229
	c-0.457-0.32-0.856-0.229-1.23,0.165c-0.154,0.162-0.364,0.268-0.533,0.414c-0.106,0.092-0.182,0.075-0.285,0.005
	c-0.73-0.507-1.347-1.125-1.855-1.854c-0.082-0.116-0.072-0.194,0.015-0.305c0.255-0.322,0.503-0.653,0.738-0.99
	c0.046-0.064,0.043-0.178,0.029-0.264c-0.016-0.088-0.092-0.168-0.104-0.256c-0.05-0.372-0.302-0.447-0.62-0.471
	c-0.317-0.024-0.632-0.078-0.945-0.139c-0.068-0.012-0.163-0.093-0.176-0.156c-0.181-0.893-0.183-1.79,0.001-2.685
	c0.013-0.061,0.099-0.136,0.16-0.147C4.415,9.02,4.839,8.969,5.26,8.897C5.336,8.885,5.43,8.822,5.463,8.755
	C5.567,8.539,5.646,8.312,5.74,8.079z M10.624,7.996C9.216,7.995,8.08,9.135,8.082,10.548c0.002,1.399,1.134,2.53,2.536,2.532
	c1.401,0.004,2.565-1.158,2.552-2.55C13.157,9.132,12.017,7.998,10.624,7.996z"/>
</svg>
