<?xml version="1.0" encoding="utf-8"?>
<!-- Generator: Adobe Illustrator 16.0.3, SVG Export Plug-In . SVG Version: 6.00 Build 0)  -->
<!DOCTYPE svg PUBLIC "-//W3C//DTD SVG 1.1//EN" "http://www.w3.org/Graphics/SVG/1.1/DTD/svg11.dtd">
<svg version="1.1" id="Ebene_1" xmlns="http://www.w3.org/2000/svg" xmlns:xlink="http://www.w3.org/1999/xlink" x="0px" y="0px"
	 width="21.9px" height="22.015px" viewBox="0 0 21.9 22.015" enable-background="new 0 0 21.9 22.015" xml:space="preserve">
<path fill-rule="evenodd" clip-rule="evenodd" fill="#014260" d="M3.792,7.462C3.417,6.96,3.047,6.444,2.655,5.945
	C2.531,5.787,2.543,5.682,2.649,5.53c0.68-0.974,1.505-1.8,2.477-2.482c0.173-0.121,0.29-0.136,0.468,0.005
	c0.487,0.39,0.996,0.752,1.486,1.119c0.321-0.128,0.631-0.236,0.924-0.378C8.094,3.75,8.18,3.62,8.198,3.518
	c0.097-0.574,0.166-1.152,0.263-1.725C8.475,1.71,8.58,1.594,8.66,1.578c1.228-0.25,2.459-0.25,3.687,0.005
	c0.076,0.016,0.17,0.141,0.184,0.228c0.095,0.563,0.179,1.128,0.246,1.695c0.021,0.175,0.081,0.275,0.25,0.312
	c0.031,0.006,0.064,0.014,0.089,0.032c0.585,0.415,1.071,0.239,1.541-0.223c0.225-0.221,0.515-0.372,0.752-0.581
	c0.164-0.144,0.279-0.116,0.438-0.005c0.985,0.684,1.813,1.522,2.502,2.502c0.113,0.161,0.091,0.266-0.025,0.414
	c-0.348,0.44-0.684,0.89-1.005,1.35c-0.062,0.088-0.059,0.243-0.04,0.359c0.02,0.121,0.123,0.229,0.141,0.35
	c0.074,0.501,0.412,0.606,0.848,0.638c0.441,0.033,0.881,0.113,1.317,0.191c0.076,0.013,0.181,0.106,0.197,0.18
	c0.262,1.228,0.256,2.459,0.006,3.687c-0.016,0.08-0.134,0.184-0.217,0.198c-0.563,0.097-1.128,0.181-1.695,0.249
	c-0.186,0.022-0.292,0.085-0.331,0.27c-0.02,0.092-0.052,0.188-0.105,0.264c-0.306,0.439-0.183,0.793,0.161,1.157
	c0.274,0.291,0.479,0.646,0.732,0.958c0.114,0.14,0.124,0.242,0.021,0.389c-0.697,1.002-1.544,1.851-2.547,2.546
	c-0.149,0.104-0.25,0.083-0.388-0.026c-0.44-0.347-0.898-0.673-1.34-1.018c-0.135-0.105-0.24-0.079-0.396-0.042
	c-0.7,0.162-1.028,0.569-1.014,1.296c0.007,0.333-0.073,0.672-0.144,1.002c-0.019,0.089-0.136,0.208-0.226,0.225
	c-1.208,0.239-2.418,0.241-3.625-0.004c-0.086-0.018-0.2-0.143-0.216-0.233c-0.098-0.562-0.162-1.131-0.262-1.692
	c-0.021-0.115-0.136-0.237-0.24-0.311c-0.622-0.437-1.166-0.311-1.675,0.224c-0.209,0.22-0.495,0.364-0.726,0.564
	c-0.144,0.124-0.248,0.103-0.387,0.006c-0.994-0.69-1.834-1.531-2.527-2.523c-0.111-0.159-0.097-0.265,0.021-0.415
	c0.348-0.44,0.684-0.89,1.005-1.349c0.062-0.087,0.058-0.242,0.039-0.358c-0.021-0.121-0.125-0.229-0.141-0.35
	c-0.068-0.506-0.411-0.607-0.844-0.641c-0.431-0.033-0.861-0.106-1.287-0.187c-0.092-0.017-0.221-0.127-0.239-0.213
	c-0.246-1.217-0.248-2.438,0.002-3.656C1.215,8.96,1.332,8.856,1.415,8.842c0.573-0.098,1.15-0.167,1.724-0.265
	c0.103-0.018,0.232-0.104,0.276-0.194C3.557,8.089,3.665,7.779,3.792,7.462z M10.443,7.349c-1.918-0.002-3.465,1.55-3.462,3.475
	c0.003,1.905,1.544,3.444,3.453,3.448c1.908,0.005,3.493-1.578,3.476-3.472C13.892,8.896,12.341,7.352,10.443,7.349z"/>
</svg>
