<?xml version="1.0" encoding="utf-8"?>
<!-- Generator: Adobe Illustrator 16.0.3, SVG Export Plug-In . SVG Version: 6.00 Build 0)  -->
<!DOCTYPE svg PUBLIC "-//W3C//DTD SVG 1.1//EN" "http://www.w3.org/Graphics/SVG/1.1/DTD/svg11.dtd">
<svg version="1.1" xmlns="http://www.w3.org/2000/svg" xmlns:xlink="http://www.w3.org/1999/xlink" x="0px" y="0px" width="21.9px"
	 height="22.016px" viewBox="0 0 21.9 22.016" enable-background="new 0 0 21.9 22.016" xml:space="preserve">
<g id="Ebene_1">
	<path display="none" fill="#014260" d="M5.74,8.079C5.464,7.71,5.192,7.331,4.905,6.965C4.813,6.848,4.822,6.772,4.9,6.66
		c0.5-0.717,1.104-1.322,1.819-1.824c0.127-0.088,0.213-0.102,0.344,0.005c0.355,0.286,0.729,0.552,1.091,0.821
		C8.39,5.569,8.617,5.49,8.832,5.385c0.067-0.032,0.13-0.127,0.145-0.203c0.069-0.421,0.122-0.846,0.191-1.267
		C9.179,3.854,9.256,3.77,9.314,3.758c0.9-0.185,1.806-0.185,2.708,0.003c0.056,0.013,0.125,0.104,0.135,0.168
		c0.07,0.413,0.132,0.828,0.181,1.244c0.018,0.129,0.062,0.203,0.187,0.229c0.021,0.005,0.046,0.012,0.063,0.023
		C13.018,5.73,13.374,5.6,13.72,5.26c0.163-0.162,0.378-0.273,0.552-0.426c0.121-0.105,0.205-0.085,0.323-0.003
		c0.722,0.502,1.328,1.118,1.837,1.837c0.082,0.118,0.064,0.193-0.021,0.304c-0.256,0.324-0.503,0.654-0.738,0.992
		c-0.046,0.063-0.044,0.178-0.027,0.263c0.014,0.089,0.091,0.168,0.104,0.258c0.056,0.368,0.304,0.444,0.623,0.47
		c0.323,0.022,0.646,0.083,0.967,0.141c0.058,0.009,0.135,0.077,0.146,0.132c0.19,0.901,0.188,1.808,0.004,2.707
		c-0.011,0.062-0.098,0.136-0.159,0.146c-0.413,0.068-0.828,0.133-1.244,0.183c-0.137,0.018-0.215,0.063-0.243,0.198
		c-0.015,0.066-0.037,0.139-0.075,0.192c-0.228,0.321-0.137,0.581,0.116,0.852c0.201,0.214,0.354,0.474,0.537,0.703
		c0.084,0.104,0.093,0.178,0.019,0.286c-0.515,0.734-1.136,1.356-1.871,1.867c-0.109,0.077-0.186,0.063-0.285-0.019
		c-0.323-0.256-0.659-0.494-0.984-0.748c-0.1-0.076-0.176-0.058-0.291-0.03c-0.514,0.119-0.754,0.418-0.742,0.951
		c0.006,0.244-0.055,0.494-0.105,0.736c-0.015,0.063-0.1,0.15-0.166,0.165c-0.888,0.175-1.776,0.177-2.663-0.003
		c-0.063-0.016-0.146-0.105-0.159-0.171C9.103,16.83,9.054,16.412,8.982,16c-0.018-0.084-0.101-0.174-0.177-0.229
		c-0.456-0.318-0.855-0.229-1.229,0.165c-0.154,0.162-0.364,0.27-0.533,0.414c-0.104,0.092-0.182,0.075-0.285,0.005
		c-0.729-0.507-1.347-1.125-1.854-1.854c-0.082-0.116-0.072-0.194,0.015-0.307c0.255-0.32,0.503-0.651,0.738-0.988
		c0.046-0.064,0.043-0.18,0.029-0.266c-0.018-0.088-0.094-0.168-0.104-0.256c-0.05-0.372-0.302-0.447-0.62-0.471
		c-0.315-0.024-0.632-0.078-0.943-0.139c-0.068-0.014-0.163-0.095-0.178-0.156c-0.181-0.895-0.183-1.79,0.001-2.687
		c0.015-0.061,0.101-0.136,0.16-0.146C4.415,9.02,4.839,8.969,5.26,8.897C5.336,8.885,5.43,8.823,5.463,8.755
		C5.567,8.539,5.646,8.312,5.74,8.079z M10.624,7.996C9.216,7.995,8.08,9.135,8.082,10.548c0.002,1.397,1.134,2.53,2.536,2.532
		c1.401,0.004,2.565-1.158,2.552-2.552C13.157,9.132,12.017,7.998,10.624,7.996z"/>
	<g id="Pfeil_6_1_">
		<g>
			<g>
				<g>
					<g>
						<path fill="#FFFFFF" d="M7.837,6.587C7.593,6.383,7.393,6.476,7.393,6.794V7.85c0,0.318-0.26,0.578-0.578,0.578h-3.08
							c-0.318,0-0.578,0.26-0.578,0.578v3.377c0,0.318,0.26,0.578,0.578,0.578h2.969c0.318,0,0.578,0.26,0.578,0.578v1.056
							c0,0.318,0.203,0.416,0.452,0.217l4.631-3.701c0.249-0.198,0.253-0.528,0.009-0.732L7.837,6.587z"/>
					</g>
				</g>
			</g>
		</g>
		<g>
			<path fill="#FFFFFF" d="M12.968,18.426H8.925c-0.561,0-1.014-0.453-1.014-1.014s0.454-1.016,1.014-1.016h4.043
				c0.343,0,0.621-0.277,0.621-0.621V6.067c0-0.343-0.278-0.621-0.621-0.621H8.925c-0.561,0-1.014-0.454-1.014-1.014
				c0-0.56,0.454-1.014,1.014-1.014h4.043c1.461,0,2.649,1.189,2.649,2.649v9.709C15.617,17.237,14.428,18.426,12.968,18.426z"/>
		</g>
	</g>
</g>
<g id="Ebene_2" display="none">
	<rect x="5.07" y="4.54" display="inline" fill="none" stroke="#014260" stroke-miterlimit="10" width="11.318" height="12.408"/>
	<polygon display="inline" fill="#014260" points="16.451,16.798 11.958,12.178 11.958,4.39 16.451,4.39 	"/>
	<g id="Pfeil_6" display="inline">
		<g>
			<polygon fill="#014260" stroke="#FFFFFF" stroke-width="0.5" stroke-miterlimit="10" points="7.26,7.12 7.26,8.938 2.702,8.938 
				2.702,12.662 7.182,12.662 7.182,14.48 11.209,10.844 			"/>
		</g>
	</g>
</g>
</svg>
