<?xml version="1.0" encoding="utf-8"?>
<!-- Generator: Adobe Illustrator 16.0.3, SVG Export Plug-In . SVG Version: 6.00 Build 0)  -->
<!DOCTYPE svg PUBLIC "-//W3C//DTD SVG 1.1//EN" "http://www.w3.org/Graphics/SVG/1.1/DTD/svg11.dtd">
<svg version="1.1" id="Ebene_1" xmlns="http://www.w3.org/2000/svg" xmlns:xlink="http://www.w3.org/1999/xlink" x="0px" y="0px"
	 width="12.486px" height="13.412px" viewBox="0 0 12.486 13.412" enable-background="new 0 0 12.486 13.412" xml:space="preserve">
<g id="Ebene_1_1_" display="none">
	<path display="inline" fill="#014260" d="M5.74,8.079C5.464,7.71,5.192,7.331,4.905,6.965C4.813,6.848,4.822,6.772,4.9,6.66
		c0.5-0.718,1.104-1.322,1.819-1.824c0.127-0.088,0.213-0.103,0.344,0.005c0.354,0.286,0.729,0.552,1.091,0.821
		C8.39,5.569,8.617,5.49,8.832,5.385c0.067-0.032,0.13-0.127,0.146-0.203C9.046,4.761,9.1,4.336,9.168,3.915
		C9.179,3.854,9.256,3.77,9.314,3.758c0.897-0.186,1.806-0.186,2.708,0.003c0.056,0.013,0.125,0.104,0.135,0.168
		c0.07,0.413,0.132,0.828,0.181,1.244c0.021,0.129,0.063,0.203,0.188,0.229c0.021,0.006,0.046,0.013,0.063,0.023
		C13.018,5.73,13.374,5.6,13.72,5.26c0.16-0.162,0.378-0.273,0.552-0.426c0.121-0.105,0.205-0.085,0.323-0.003
		c0.722,0.502,1.325,1.118,1.837,1.837c0.082,0.118,0.063,0.192-0.021,0.304c-0.256,0.324-0.503,0.654-0.738,0.992
		c-0.046,0.063-0.044,0.178-0.024,0.264c0.014,0.088,0.091,0.168,0.104,0.258c0.059,0.367,0.307,0.443,0.623,0.472
		c0.323,0.021,0.646,0.083,0.967,0.142c0.061,0.01,0.138,0.076,0.146,0.133c0.188,0.899,0.188,1.809,0.004,2.707
		c-0.011,0.063-0.098,0.135-0.159,0.146c-0.413,0.067-0.828,0.133-1.244,0.183c-0.137,0.021-0.215,0.063-0.24,0.198
		c-0.018,0.065-0.037,0.14-0.075,0.19c-0.229,0.322-0.14,0.582,0.116,0.854c0.198,0.215,0.354,0.475,0.534,0.703
		c0.084,0.104,0.096,0.178,0.021,0.286c-0.517,0.733-1.136,1.354-1.871,1.866c-0.109,0.076-0.188,0.063-0.285-0.02
		c-0.323-0.257-0.659-0.494-0.982-0.748c-0.102-0.076-0.178-0.059-0.29-0.029c-0.517,0.119-0.757,0.418-0.742,0.951
		c0.006,0.244-0.058,0.494-0.105,0.734c-0.015,0.063-0.1,0.148-0.166,0.165c-0.888,0.175-1.773,0.179-2.663-0.003
		c-0.063-0.018-0.146-0.104-0.157-0.171C9.103,16.83,9.054,16.412,8.982,16c-0.021-0.084-0.104-0.174-0.177-0.229
		c-0.456-0.315-0.855-0.229-1.229,0.166c-0.154,0.162-0.364,0.271-0.533,0.414c-0.104,0.092-0.182,0.074-0.285,0.004
		c-0.729-0.506-1.347-1.125-1.854-1.854c-0.082-0.115-0.072-0.193,0.015-0.309c0.255-0.318,0.503-0.649,0.738-0.986
		c0.046-0.064,0.043-0.182,0.029-0.268c-0.021-0.088-0.097-0.168-0.104-0.256c-0.05-0.371-0.302-0.447-0.62-0.472
		c-0.313-0.022-0.632-0.078-0.94-0.14c-0.068-0.016-0.163-0.096-0.181-0.155c-0.181-0.896-0.183-1.79,0.001-2.688
		c0.018-0.062,0.104-0.137,0.16-0.146C4.415,9.021,4.839,8.97,5.26,8.897C5.335,8.886,5.43,8.823,5.462,8.755
		C5.567,8.539,5.646,8.312,5.74,8.079z M10.624,7.996c-1.408-0.001-2.544,1.14-2.542,2.552c0.002,1.396,1.134,2.53,2.536,2.532
		c1.401,0.004,2.565-1.158,2.552-2.554C13.157,9.132,12.017,7.998,10.624,7.996z"/>
	<g display="inline">
		<g>
			<g>
				<path fill="#014260" d="M16.455,17.196c0,0.47-0.383,0.853-0.851,0.853H5.85c-0.472,0-0.854-0.383-0.854-0.853v-3.118
					c0-0.47,0.229-0.853,0.5-0.853c0.275,0,0.5,0.383,0.5,0.853v2.118c0,0.47,0.383,0.853,0.854,0.853h7.754
					c0.468,0,0.851-0.383,0.851-0.853V5.326c0-0.47-0.383-0.853-0.851-0.853H6.85c-0.472,0-0.854,0.383-0.854,0.853v2.042
					c0,0.468-0.225,0.852-0.5,0.852c-0.271,0-0.5-0.384-0.5-0.852V4.326c0-0.47,0.383-0.853,0.854-0.853h9.754
					c0.468,0,0.851,0.383,0.851,0.853V17.196z"/>
			</g>
		</g>
	</g>
	<g id="Pfeil_25" display="inline">
		<g>
			<g>
				<g>
					<path fill="#014260" d="M14.478,10.463c0-0.468-0.383-0.853-0.854-0.853H10.84c-0.468,0-0.851-0.383-0.851-0.853v-1.63
						c0-0.468-0.332-0.66-0.736-0.426l-6.146,3.545c-0.405,0.232-0.405,0.613,0,0.85l6.146,3.545
						c0.404,0.232,0.736,0.041,0.736-0.427v-1.633c0-0.47,0.383-0.853,0.851-0.853h2.786c0.471,0,0.854-0.383,0.854-0.853
						L14.478,10.463L14.478,10.463z"/>
				</g>
			</g>
		</g>
	</g>
</g>
<g>
	<path fill="none" stroke="#FFFFFF" stroke-linecap="round" stroke-miterlimit="10" d="M10.675,8.05
		c1.168,1.148,1.813,2.688,1.813,4.324c0.001,3.348-2.721,6.068-6.064,6.068c-3.346,0-6.066-2.723-6.066-6.068
		c0-1.631,0.641-3.164,1.8-4.313"/>
	<path fill="none" stroke="#FFFFFF" stroke-linecap="round" stroke-miterlimit="10" d="M10.675,8.05"/>
	<path fill="none" stroke="#FFFFFF" stroke-linecap="round" stroke-miterlimit="10" d="M2.154,8.062"/>
</g>
<g>
	<path fill="none" stroke="#FFFFFF" stroke-linecap="round" stroke-miterlimit="10" d="M6.426,6.346v5.75"/>
</g>
</svg>
