<?xml version="1.0" encoding="utf-8"?>
<!-- Generator: Adobe Illustrator 16.0.3, SVG Export Plug-In . SVG Version: 6.00 Build 0)  -->
<!DOCTYPE svg PUBLIC "-//W3C//DTD SVG 1.1//EN" "http://www.w3.org/Graphics/SVG/1.1/DTD/svg11.dtd">
<svg version="1.1" id="Ebene_1" xmlns="http://www.w3.org/2000/svg" xmlns:xlink="http://www.w3.org/1999/xlink" x="0px" y="0px"
	 width="21.9px" height="22.016px" viewBox="0 0 21.9 22.016" enable-background="new 0 0 21.9 22.016" xml:space="preserve">
<path display="none" fill="#014260" d="M5.74,8.079C5.464,7.71,5.192,7.331,4.905,6.965C4.813,6.848,4.822,6.772,4.9,6.66
	c0.5-0.717,1.104-1.322,1.819-1.824c0.127-0.088,0.213-0.102,0.344,0.005c0.355,0.286,0.729,0.552,1.091,0.821
	C8.39,5.569,8.617,5.49,8.832,5.385c0.067-0.032,0.13-0.127,0.145-0.203c0.069-0.421,0.122-0.846,0.191-1.267
	C9.179,3.854,9.256,3.77,9.314,3.758c0.9-0.186,1.806-0.186,2.708,0.003c0.056,0.013,0.125,0.104,0.135,0.168
	c0.07,0.413,0.132,0.828,0.181,1.244c0.018,0.129,0.062,0.203,0.187,0.229c0.021,0.004,0.046,0.012,0.063,0.023
	C13.018,5.73,13.374,5.6,13.72,5.26c0.163-0.162,0.378-0.273,0.552-0.426c0.121-0.105,0.205-0.085,0.323-0.003
	c0.722,0.502,1.328,1.117,1.837,1.837c0.082,0.118,0.064,0.193-0.021,0.304c-0.256,0.324-0.503,0.654-0.738,0.992
	c-0.046,0.063-0.044,0.178-0.027,0.263c0.014,0.089,0.091,0.168,0.104,0.258c0.056,0.368,0.304,0.444,0.623,0.47
	c0.323,0.022,0.646,0.083,0.967,0.141c0.058,0.009,0.135,0.077,0.146,0.132c0.19,0.901,0.188,1.808,0.004,2.707
	c-0.011,0.062-0.098,0.136-0.159,0.146c-0.413,0.068-0.828,0.133-1.244,0.183c-0.137,0.017-0.215,0.063-0.242,0.198
	c-0.016,0.066-0.038,0.139-0.076,0.192c-0.228,0.321-0.137,0.581,0.116,0.852c0.201,0.214,0.354,0.474,0.537,0.703
	c0.084,0.104,0.093,0.178,0.019,0.286c-0.515,0.734-1.136,1.356-1.871,1.867c-0.109,0.077-0.186,0.063-0.285-0.019
	c-0.323-0.256-0.659-0.494-0.984-0.748c-0.1-0.076-0.176-0.058-0.291-0.03c-0.514,0.119-0.754,0.418-0.742,0.951
	c0.006,0.244-0.055,0.494-0.105,0.736c-0.015,0.063-0.1,0.15-0.166,0.165c-0.888,0.175-1.775,0.177-2.663-0.003
	c-0.063-0.016-0.146-0.105-0.159-0.171C9.103,16.83,9.054,16.412,8.982,16c-0.018-0.084-0.101-0.174-0.177-0.229
	c-0.456-0.318-0.855-0.229-1.229,0.165c-0.154,0.162-0.364,0.27-0.533,0.414c-0.104,0.092-0.182,0.075-0.285,0.005
	c-0.729-0.507-1.347-1.125-1.854-1.854c-0.082-0.116-0.072-0.194,0.015-0.307c0.255-0.32,0.503-0.651,0.738-0.988
	c0.046-0.064,0.043-0.18,0.029-0.266c-0.018-0.088-0.094-0.168-0.104-0.256c-0.05-0.372-0.302-0.447-0.62-0.471
	c-0.315-0.024-0.632-0.078-0.943-0.139c-0.068-0.014-0.163-0.095-0.178-0.156c-0.181-0.895-0.183-1.79,0.001-2.687
	c0.015-0.061,0.101-0.136,0.16-0.146C4.415,9.02,4.839,8.969,5.26,8.897C5.336,8.885,5.43,8.822,5.463,8.755
	C5.567,8.539,5.646,8.312,5.74,8.079z M10.624,7.996C9.216,7.995,8.08,9.135,8.082,10.548c0.002,1.397,1.134,2.53,2.536,2.532
	c1.401,0.004,2.565-1.158,2.552-2.552C13.157,9.132,12.017,7.998,10.624,7.996z"/>
<g>
	<g>
		<g>
			<path fill="#FFFFFF" d="M14.186,17.337c0,0.391-0.319,0.71-0.709,0.71H5.344c-0.391,0-0.71-0.319-0.71-0.71v-2.601
				c0-0.392,0.188-0.711,0.417-0.711c0.229,0,0.417,0.319,0.417,0.711v1.767c0,0.391,0.319,0.71,0.71,0.71h6.466
				c0.39,0,0.709-0.319,0.709-0.71V7.44c0-0.391-0.319-0.71-0.709-0.71H6.177c-0.391,0-0.71,0.319-0.71,0.71v1.703
				c0,0.39-0.188,0.709-0.417,0.709c-0.229,0-0.417-0.319-0.417-0.709V6.606c0-0.391,0.319-0.71,0.71-0.71h8.134
				c0.39,0,0.709,0.319,0.709,0.71V17.337z"/>
		</g>
	</g>
</g>
<g id="Pfeil_25">
	<g>
		<g>
			<g>
				<path fill="#FFFFFF" d="M12.538,11.723c0-0.39-0.319-0.71-0.709-0.71H9.506c-0.39,0-0.709-0.319-0.709-0.709V8.943
					c0-0.39-0.277-0.551-0.614-0.355l-5.127,2.956c-0.338,0.194-0.338,0.513,0,0.709l5.127,2.955
					c0.337,0.194,0.614,0.034,0.614-0.355V13.49c0-0.391,0.319-0.71,0.709-0.71h2.323c0.39,0,0.709-0.319,0.709-0.71V11.723z"/>
			</g>
		</g>
	</g>
</g>
</svg>
