<?xml version="1.0" encoding="utf-8"?>
<!-- Generator: Adobe Illustrator 16.0.3, SVG Export Plug-In . SVG Version: 6.00 Build 0)  -->
<!DOCTYPE svg PUBLIC "-//W3C//DTD SVG 1.1//EN" "http://www.w3.org/Graphics/SVG/1.1/DTD/svg11.dtd">
<svg version="1.1" id="Ebene_1" xmlns="http://www.w3.org/2000/svg" xmlns:xlink="http://www.w3.org/1999/xlink" x="0px" y="0px"
	 width="14.192px" height="15.175px" viewBox="0 0 14.192 15.175" enable-background="new 0 0 14.192 15.175" xml:space="preserve">
<g>
	<path fill="#FFFFFF" stroke="#FFFFFF" stroke-width="30" stroke-miterlimit="10" d="M4.291-1.415"/>
</g>
<g>
	<path fill="#FFFFFF" d="M6.965,15.175C3.125,15.175,0,12.051,0,8.211c0-1.875,0.734-3.633,2.066-4.952
		c0.325-0.32,0.849-0.318,1.169,0.007c0.321,0.326,0.318,0.848-0.006,1.17C2.213,5.441,1.654,6.781,1.654,8.211
		c0,2.927,2.382,5.311,5.312,5.311c2.927,0,5.311-2.384,5.311-5.311c0-1.435-0.563-2.779-1.587-3.785
		c-0.326-0.32-0.329-0.845-0.009-1.17c0.319-0.325,0.844-0.329,1.169-0.009c1.34,1.321,2.08,3.083,2.08,4.964
		C13.929,12.051,10.804,15.175,6.965,15.175z"/>
</g>
<g>
	<path fill="#FFFFFF" d="M6.965,8.718c-0.458,0-0.828-0.369-0.828-0.827V1.288c0-0.457,0.37-0.828,0.828-0.828
		c0.455,0,0.826,0.371,0.826,0.828v6.603C7.791,8.349,7.42,8.718,6.965,8.718z"/>
</g>
</svg>
